# AST/ASF file generated using VICON BodyLanguage
# -----------------------------------------------
:version 1.10
:name VICON
:units
  mass 1.0
  length 0.45
  angle deg
:documentation
   .ast/.asf automatically generated from VICON data using
   VICON BodyBuilder and BodyLanguage model FoxedUp or BRILLIANT.MOD
:root
   order TX TY TZ RX RY RZ
   axis XYZ
   position 0 0 0  
   orientation 0 0 0 
:bonedata
  begin
     id 1 
     name lhipjoint
     direction 0.627457 -0.725269 0.283342 
     length 2.53237 
     axis 0 0 0  XYZ
  end
  begin
     id 2 
     name lfemur
     direction 0.34202 -0.939693 0  
     length 7.32496  
     axis 0 0 20  XYZ
    dof rx ry rz
    limits (-160.0 20.0)
           (-70.0 70.0)
           (-60.0 70.0)
  end
  begin
     id 3 
     name ltibia
     direction 0.34202 -0.939693 0   
     length 7.69674   
     axis 0 0 20   XYZ
    dof rx
    limits (-10.0 170.0)
  end
  begin
     id 4 
     name lfoot
     direction 0.127289 -0.349722 0.928166   
     length 1.8612   
     axis -90 7.62852e-016 20   XYZ
    dof rx rz
    limits (-45.0 90.0)
           (-70.0 20.0)
  end
  begin
     id 5 
     name ltoes
     direction 1.53561e-011 -4.21864e-011 1   
     length 0.925608   
     axis -90 7.62852e-016 20   XYZ
    dof rx
    limits (-90.0 20.0)
  end
  begin
     id 6 
     name rhipjoint
     direction -0.609094 -0.738725 0.288599   
     length 2.48624  
     axis 0 0 0  XYZ 
  end
  begin
     id 7 
     name rfemur
     direction -0.34202 -0.939693 0   
     length 7.44259   
     axis 0 0 -20   XYZ
    dof rx ry rz
    limits (-160.0 20.0)
           (-70.0 70.0)
           (-70.0 60.0)
  end
  begin
     id 8 
     name rtibia
     direction -0.34202 -0.939693 0   
     length 7.7781   
     axis 0 0 -20   XYZ
    dof rx
    limits (-10.0 170.0)
 end
 begin
     id 9 
     name rfoot
     direction -0.107015 -0.294021 0.949789   
     length 2.14741  
     axis -90 -7.62852e-016 -20   XYZ
    dof rx rz
    limits (-45.0 90.0)
           (-20.0 70.0)
  end
  begin
     id 10 
     name rtoes
     direction -1.53497e-011 -4.21924e-011 1   
     length 1.0706   
     axis -90 -7.62852e-016 -20   XYZ
    dof rx
    limits (-90.0 20.0)
  end
  begin
     id 11 
     name lowerback
     direction -0.0142066 0.998112 -0.0597545   
     length 1.86627   
     axis 0 0 0   XYZ
    dof rx ry rz
    limits (-20.0 45.0)
           (-30.0 30.0)
           (-30.0 30.0)
  end
  begin
     id 12 
     name upperback
     direction 0.00547294 0.999744 0.0219437   
     length 1.86272   
     axis 0 0 0   XYZ
    dof rx ry rz
    limits (-20.0 45.0)
           (-30.0 30.0)
           (-30.0 30.0)
  end
  begin
     id 13 
     name thorax
     direction 0.0116162 0.998704 0.0495538   
     length 1.8703   
     axis 0 0 0   XYZ
    dof rx ry rz
    limits (-20.0 45.0)
           (-30.0 30.0)
           (-30.0 30.0)
  end
  begin
     id 14 
     name lowerneck
     direction -0.0106574 0.998739 0.0490586   
     length 1.8074   
     axis 0 0 0   XYZ
    dof rx ry rz
    limits (-20.0 45.0)
           (-30.0 30.0)
           (-30.0 30.0)
  end
  begin
     id 15 
     name upperneck
     direction 0.030527 0.976587 -0.212944   
     length 1.80681   
     axis 0 0 0   XYZ
    dof rx ry rz
    limits (-20.0 45.0)
           (-30.0 30.0)
           (-30.0 30.0)
  end
  begin
     id 16
     name head
     direction 0.00869225 0.997035 -0.0764531  
     length 1.8313  
     axis 0 0 0   XYZ
    dof rx ry rz
    limits (-20.0 45.0)
           (-30.0 30.0)
           (-30.0 30.0)
  end
  begin
     id 17 
     name lclavicle
     direction 0.915958 0.399447 0.0382386  
     length 3.78965  
     axis 0 0 0   XYZ
    dof ry rz
    limits (-20.0 10.0)
           (0.0 20.0)
  end
  begin
     id 18 
     name lhumerus
     direction 1 -4.48967e-011 3.19303e-027   
     length 4.78095   
     axis -180 -30 -90   XYZ
    dof rx ry rz
    limits (-60.0 90.0)
           (-90.0 90.0)
           (-90.0 90.0)
  end
  begin
     id 19
     name lradius
     direction 1 -4.48967e-011 -3.77974e-027   
     length 3.58615   
     axis -180 -30 -90   XYZ
    dof rx
    limits (-10.0 170.0)
  end
  begin
     id 20
     name lwrist
     direction 1 -4.48927e-011 1.2807e-027   
     length 1.79307   
     axis 1.91374e-015 90 90   XYZ
    dof ry
    limits (-180.0 0.0)
 end
  begin
     id 21 
     name lhand
     direction 1 -4.49036e-011 2.5614e-027   
     length 0.659812   
     axis -1.63439e-015 90 90   XYZ
    dof rx rz
    limits (-90.0 90.0)
           (-45.0 45.0)
  end
  begin
     id 22 
     name lfingers
     direction 1 -4.49052e-011 5.1228e-027   
     length 0.531957   
     axis -3.26879e-015 90 90   XYZ
    dof rx
    limits (0.0 90.0)
  end
  begin
     id 23
     name lthumb
     direction 0.707107 -6.35012e-011 0.707107   
     length 0.763787   
     axis -90 45 2.85299e-015   XYZ
    dof rx rz
    limits (-45.0 45.0)
           (-45.0 45.0)
  end
  begin
     id 24 
     name rclavicle
     direction -0.895351 0.435135 0.0948887   
     length 3.70497  
     axis 0 0 0   XYZ 
    dof ry rz
    limits (-10.0 20.0)
           (-20.0 0.0)
  end
  begin
     id 25 
     name rhumerus
     direction -1 -4.48971e-011 2.38946e-027  
     length 4.48913   
     axis -180 30 90   XYZ
    dof rx ry rz
    limits (-90.0 60.0)
           (-90.0 90.0)
           (-90.0 90.0)
  end
  begin
     id 26 
     name rradius
     direction -1 -4.4895e-011 4.38668e-027   
     length 3.7051   
     axis -180 30 90   XYZ
    dof rx
    limits (-10.0 170.0)
  end
  begin
     id 27 
     name rwrist
     direction -1 -4.49007e-011 1.2807e-027   
     length 1.85255   
     axis 1.91374e-015 -90 -90   XYZ
    dof ry
    limits (-180.0 0.0)
  end
  begin
     id 28
     name rhand
     direction -1 -4.48851e-011 2.5614e-027   
     length 0.449136   
     axis -1.63439e-015 -90 -90   XYZ
    dof rx rz
    limits (-90.0 90.0)
           (-45.0 45.0)
  end
  begin
     id 29
     name rfingers
     direction -1 -4.49128e-011 5.1228e-027   
     length 0.362105   
     axis -3.26879e-015 -90 -90   XYZ
    dof rx
    limits (0.0 90.0)
  end
  begin
     id 30
     name rthumb
     direction -0.707107 -6.34851e-011 0.707107   
     length 0.519912   
     axis -90 -45 -2.85299e-015   XYZ
    dof rx rz
    limits (-45.0 45.0)
           (-45.0 45.0)
  end
:hierarchy
  begin
    root lhipjoint rhipjoint lowerback
    lhipjoint lfemur
    lfemur ltibia
    ltibia lfoot
    lfoot ltoes
    rhipjoint rfemur
    rfemur rtibia
    rtibia rfoot
    rfoot rtoes
    lowerback upperback
    upperback thorax
    thorax lowerneck lclavicle rclavicle
    lowerneck upperneck
    upperneck head
    lclavicle lhumerus
    lhumerus lradius
    lradius lwrist
    lwrist lhand lthumb
    lhand lfingers
    rclavicle rhumerus
    rhumerus rradius
    rradius rwrist
    rwrist rhand rthumb
    rhand rfingers
  end

#!OML:ASF I:\Actors\actors\Patient Classification 2\Patient 1\Session 1\actor1.ASF
:FULLY-SPECIFIED
:DEGREES
55
root -0.388176 18.0452 5.43821 0.457573 -7.37256 1.39014
lowerback 7.63972 -4.28522 7.74064
upperback -0.162544 -4.78661 4.80972
thorax -4.68021 -2.48684 1.26904
lowerneck -19.354 2.8165 2.96575
upperneck 23.6632 5.80761 -10.2015
head 11.325 1.60917 -3.35068
rclavicle 8.74653e-015 -7.95139e-015
rhumerus -19.6083 -22.6861 -82.8663
rradius 52.383
rwrist -58.7301
rhand -10.2305 -36.3793
rfingers 7.12502
rthumb 15.7616 -65.7575
lclavicle 8.74653e-015 -7.95139e-015
lhumerus -3.08816 -65.1119 93.4023
lradius 52.4635
lwrist 3.15942
lhand -0.655924 -15.6866
lfingers 7.12502
lthumb 24.962 12.7029
rfemur 16.5041 6.89038 11.4401
rtibia -22.0288
rfoot -4.01432 -16.8864
rtoes -2.36918
lfemur 16.1944 2.69427 -16.4893
ltibia -15.0128
lfoot -2.88589 13.895
ltoes -15.452
56
root -0.346775 18.0239 5.43361 0.19412 -7.87393 1.52855
lowerback 8.16157 -4.55166 8.26704
upperback -0.0845523 -5.02719 4.92437
thorax -4.93767 -2.61745 1.17726
lowerneck -19.2924 3.27366 3.26352
upperneck 23.1143 6.52763 -10.9873
head 11.2124 1.88321 -3.56561
rclavicle -3.10104e-014 -6.36111e-015
rhumerus -19.9719 -23.6889 -82.4182
rradius 52.422
rwrist -59.0751
rhand -9.96802 -36.3117
rfingers 7.12502
rthumb 16.0144 -65.6699
lclavicle -3.10104e-014 -6.36111e-015
lhumerus -3.42332 -66.0616 94.1998
lradius 52.4378
lwrist 3.00191
lhand -0.870591 -16.085
lfingers 7.12502
lthumb 24.7562 12.333
rfemur 16.9029 7.01907 11.1313
rtibia -22.6313
rfoot -3.48323 -16.7796
rtoes -2.75171
lfemur 17.0139 3.39945 -16.7172
ltibia -16
lfoot -2.31917 13.7827
ltoes -15.2508
57
root -0.306564 18.0024 5.43116 0.0131323 -8.47728 1.73599
lowerback 8.52475 -4.78734 8.71396
upperback 0.0244075 -5.25515 4.97183
thorax -5.07389 -2.73843 1.04485
lowerneck -19.3489 3.74848 3.6548
upperneck 22.6067 7.22492 -11.7121
head 11.1469 2.16024 -3.7771
rclavicle -4.37326e-015 6.36111e-015
rhumerus -20.2942 -24.7621 -82.0801
rradius 52.5845
rwrist -59.3697
rhand -10.2623 -35.9506
rfingers 7.12502
rthumb 15.7311 -65.3313
lclavicle -4.37326e-015 6.36111e-015
lhumerus -3.63633 -67.0975 94.7936
lradius 52.4997
lwrist 3.06923
lhand -0.944144 -16.708
lfingers 7.12502
lthumb 24.6857 11.7196
rfemur 17.1931 7.12863 10.7255
rtibia -23.2759
rfoot -2.84112 -16.6083
rtoes -3.22297
lfemur 17.7474 4.16124 -17.0239
ltibia -16.9764
lfoot -1.80595 13.7365
ltoes -14.9949
58
root -0.267877 17.9783 5.42955 -0.159135 -9.13058 1.8819
lowerback 8.85413 -5.05464 9.11248
upperback 0.144475 -5.53098 5.04916
thorax -5.17668 -2.88063 0.976585
lowerneck -19.4482 4.25252 4.05546
upperneck 22.2096 7.95696 -12.3943
head 11.1427 2.45472 -3.97033
rclavicle -1.10922e-013 5.40694e-014
rhumerus -20.695 -25.5993 -81.7604
rradius 53.0543
rwrist -59.8436
rhand -11.2221 -35.6457
rfingers 7.12502
rthumb 14.8066 -65.0968
lclavicle -1.10922e-013 5.40694e-014
lhumerus -3.8817 -68.003 95.3889
lradius 52.6353
lwrist 3.06016
lhand -0.933614 -17.3238
lfingers 7.12502
lthumb 24.6958 11.1024
rfemur 17.4989 7.30142 10.3943
rtibia -23.9909
rfoot -2.16615 -16.4642
rtoes -3.52167
lfemur 18.4421 4.9868 -17.2374
ltibia -17.8678
lfoot -1.37137 13.6602
ltoes -14.7425
59
root -0.228234 17.9546 5.43067 -0.289177 -9.75832 2.02756
lowerback 9.1476 -5.3511 9.46704
upperback 0.212466 -5.8476 5.12309
thorax -5.3153 -3.0435 0.938904
lowerneck -19.4268 4.76462 4.47668
upperneck 21.797 8.67812 -13.0337
head 11.1162 2.7571 -4.15139
rclavicle 3.97569e-015 -3.18055e-015
rhumerus -21.2884 -26.1412 -81.3755
rradius 53.8526
rwrist -60.615
rhand -11.9079 -35.4331
rfingers 7.12502
rthumb 14.1458 -64.9315
lclavicle 3.97569e-015 -3.18055e-015
lhumerus -4.36309 -68.7496 96.2463
lradius 52.7289
lwrist 2.00871
lhand -1.33364 -17.9504
lfingers 7.12502
lthumb 24.3124 10.5278
rfemur 17.8034 7.44705 10.0617
rtibia -24.7894
rfoot -1.42386 -16.348
rtoes -4.04017
lfemur 19.0437 5.80615 -17.4441
ltibia -18.6755
lfoot -0.994993 13.5365
ltoes -14.5609
60
root -0.18722 17.9333 5.43685 -0.348829 -10.4027 2.27141
lowerback 9.29813 -5.61507 9.7098
upperback 0.301208 -6.1551 5.16994
thorax -5.34413 -3.19715 0.917838
lowerneck -19.4247 5.27845 4.90669
upperneck 21.2758 9.38493 -13.683
head 11.0624 3.05731 -4.33477
rclavicle -3.4191e-014 2.22639e-014
rhumerus -21.8074 -26.7327 -80.9926
rradius 54.8515
rwrist -61.297
rhand -11.692 -35.0902
rfingers 7.12502
rthumb 14.3537 -64.5739
lclavicle -3.4191e-014 2.22639e-014
lhumerus -4.5961 -69.6895 96.9054
lradius 52.7411
lwrist -0.0363875
lhand -3.1226 -18.5489
lfingers 7.12502
lthumb 22.5963 10.1485
rfemur 18.0434 7.43821 9.59325
rtibia -25.6594
rfoot -0.483802 -16.1443
rtoes -5.18318
lfemur 19.5447 6.59982 -17.7806
ltibia -19.4538
lfoot -0.630799 13.4433
ltoes -14.4851
61
root -0.146407 17.9095 5.44404 -0.467465 -11.073 2.61952
lowerback 9.44915 -5.86475 9.74258
upperback 0.451161 -6.47211 5.22412
thorax -5.28531 -3.34774 1.01402
lowerneck -19.5034 5.80042 5.35297
upperneck 20.6869 10.116 -14.4536
head 11.0223 3.3562 -4.55741
rclavicle -1.0138e-013 5.40694e-014
rhumerus -22.1723 -27.4264 -80.659
rradius 56.0759
rwrist -61.767
rhand -12.5408 -34.8443
rfingers 7.12502
rthumb 13.5358 -64.3844
lclavicle -1.0138e-013 5.40694e-014
lhumerus -4.34046 -70.4513 97.2371
lradius 52.982
lwrist 0.39083
lhand -3.293 -18.7577
lfingers 7.12502
lthumb 22.4327 9.95962
rfemur 18.3514 7.44939 9.01663
rtibia -26.6004
rfoot 0.439872 -15.9734
rtoes -6.014
lfemur 20.0861 7.39448 -18.223
ltibia -20.205
lfoot -0.339431 13.3675
ltoes -14.3039
62
root -0.106721 17.8815 5.44919 -0.632057 -11.7885 2.93285
lowerback 9.71748 -6.10677 9.71307
upperback 0.569286 -6.76611 5.27757
thorax -5.31674 -3.48822 1.15574
lowerneck -19.4786 6.30505 5.90903
upperneck 20.0653 10.8139 -15.3537
head 10.9739 3.64136 -4.85117
rclavicle 2.42517e-014 6.36111e-015
rhumerus -22.6204 -27.9939 -80.3709
rradius 57.5726
rwrist -62.2413
rhand -14.9361 -34.7424
rfingers 7.12502
rthumb 11.2263 -64.422
lclavicle 2.42517e-014 6.36111e-015
lhumerus -4.17179 -71.2126 97.6687
lradius 53.3816
lwrist 1.80385
lhand -3.3282 -18.7357
lfingers 7.12502
lthumb 22.399 9.98569
rfemur 18.7231 7.5908 8.50157
rtibia -27.6105
rfoot 1.23553 -15.9121
rtoes -6.08942
lfemur 20.68 8.20468 -18.6071
ltibia -20.9268
lfoot -0.114356 13.2929
ltoes -14.3262
63
root -0.0648986 17.8498 5.45477 -0.861743 -12.604 3.23015
lowerback 10.1213 -6.31649 9.7043
upperback 0.642478 -6.99245 5.30073
thorax -5.47297 -3.59923 1.26534
lowerneck -19.3933 6.79032 6.36675
upperneck 19.5451 11.4709 -16.0394
head 10.9352 3.92478 -5.05677
rclavicle 3.85642e-014 -3.18055e-014
rhumerus -23.29 -28.4275 -80.0402
rradius 59.4323
rwrist -62.5197
rhand -15.7693 -33.9663
rfingers 7.12502
rthumb 10.4227 -63.688
lclavicle 3.85642e-014 -3.18055e-014
lhumerus -4.02775 -71.7497 98.1506
lradius 53.9239
lwrist 3.22613
lhand -2.69251 -19.0763
lfingers 7.12502
lthumb 23.009 9.57032
rfemur 19.1252 7.73697 7.99551
rtibia -28.6488
rfoot 2.13301 -15.7589
rtoes -6.33577
lfemur 21.3479 8.99869 -18.9824
ltibia -21.6566
lfoot 0.0924173 13.3313
ltoes -14.4216
64
root -0.021203 17.815 5.46196 -1.19324 -13.4316 3.62752
lowerback 10.6161 -6.51414 9.60164
upperback 0.702901 -7.20089 5.30236
thorax -5.68295 -3.70033 1.41356
lowerneck -19.3233 7.26254 6.6419
upperneck 19.1006 12.1257 -16.5388
head 10.909 4.21104 -5.16185
rclavicle 4.77083e-014 -2.54444e-014
rhumerus -24.1718 -28.6098 -79.6257
rradius 61.7662
rwrist -62.7808
rhand -14.8436 -32.5753
rfingers 7.12502
rthumb 11.3156 -62.25
lclavicle 4.77083e-014 -2.54444e-014
lhumerus -3.49553 -72.1371 98.2821
lradius 54.4619
lwrist 3.32433
lhand -2.26849 -19.9273
lfingers 7.12502
lthumb 23.4159 8.66801
rfemur 19.5804 7.86896 7.38333
rtibia -29.6741
rfoot 3.16398 -15.5118
rtoes -7.30236
lfemur 22.1038 9.77817 -19.4639
ltibia -22.4184
lfoot 0.303471 13.4251
ltoes -14.2251
65
root 0.0158819 17.7798 5.47291 -1.52239 -14.1924 3.98614
lowerback 10.9815 -6.71171 9.41257
upperback 0.789018 -7.44049 5.34672
thorax -5.77652 -3.81208 1.64169
lowerneck -19.279 7.71433 6.88939
upperneck 18.6717 12.7855 -17.1406
head 10.9089 4.48479 -5.29814
rclavicle 6.55989e-014 -3.81667e-014
rhumerus -25.0316 -28.6156 -79.2624
rradius 64.4396
rwrist -63.0567
rhand -14.5731 -31.6898
rfingers 7.12502
rthumb 11.5765 -61.3501
lclavicle 6.55989e-014 -3.81667e-014
lhumerus -2.37299 -72.4013 97.8561
lradius 54.9999
lwrist 2.58551
lhand -2.11299 -21.0778
lfingers 7.12502
lthumb 23.565 7.49842
rfemur 20.0675 8.04331 6.85672
rtibia -30.6697
rfoot 4.08925 -15.332
rtoes -8.1976
lfemur 22.8971 10.5297 -19.8688
ltibia -23.2236
lfoot 0.531486 13.4845
ltoes -14.0046
